<?xml version="1.0" standalone="no"?>
<!DOCTYPE svg PUBLIC "-//W3C//DTD SVG 20010904//EN"
 "http://www.w3.org/TR/2001/REC-SVG-20010904/DTD/svg10.dtd">
<svg version="1.0" xmlns="http://www.w3.org/2000/svg"
 width="18.704738pt" height="18.720000pt" viewBox="0 0 18.704738 18.720000"
 preserveAspectRatio="xMidYMid meet">
<metadata>
Created by Potrace Professional 1.1m
</metadata>
<g transform="translate(-3.960000,23.280000) rotate(-360.00) scale(0.006708,-0.006708)"
fill="#fffeed" stroke="none">
<path d="M1825 3453 c0 -10 -22 -23 -50 -30 -203 -50 -365 -280 -377 -537 -8
-194 -29 -215 -226 -224 -254 -12 -484 -174 -534 -377 -7 -27 -20 -49 -30 -49
-10 0 -18 -68 -18 -161 0 -93 8 -161 18 -161 10 0 23 -22 30 -49 31 -127 142
-245 306 -326 167 -83 1055 -78 1228 6 263 129 395 343 395 637 0 188 0 188
-98 188 -99 0 -99 0 -108 -161 -14 -243 -109 -394 -297 -475 -126 -54 -938
-52 -1041 2 -376 196 -231 715 199 715 261 0 387 135 389 416 3 499 706 503
750 4 9 -107 9 -107 108 -107 266 0 24 586 -273 659 -27 7 -49 20 -49 30 0 10
-68 17 -161 17 -94 0 -161 -7 -161 -17z"/>
<path d="M1867 2631 c-306 -111 -480 -371 -468 -701 5 -150 5 -150 104 -150
98 0 98 0 107 161 15 243 109 394 298 475 125 54 937 53 1041 -1 367 -192 233
-716 -183 -716 -268 0 -386 -111 -400 -375 -28 -540 -708 -580 -755 -45 -10
107 -10 107 -108 107 -248 0 -64 -502 233 -638 49 -23 89 -47 89 -55 0 -7 72
-13 161 -13 93 0 161 7 161 17 0 10 22 23 49 30 207 51 380 302 380 551 0 175
27 200 224 210 628 35 800 831 241 1118 -131 67 -1005 85 -1174 25z"/>
</g>
</svg>
